# xmcd
#
# Track frame offsets:
# 150
# 16312
# 30089
# 43020
# 60110
# 74449
# 88792
# 105802
# 124024
# 143304
# 158623
# 176860
# 193209
# 212694
# 229302
#
# Disc length: 3274 seconds
#
#
# Revision: 2
# Processed by: cddbd v1.5.2PL0 Copyright (c) Steve Scherf et al.
# Submitted via: FreeRIP 2.951 
#
DISCID=b90cc80f
DTITLE=Garotos De Ouro - O Sucesso Continua
DYEAR=2006
DGENRE=Gaucha
TTITLE0=SE APERTAR ELA DA
TTITLE1=VUKO VUKO
TTITLE2=NA BASE DA CHINELA (BAILE DA GABRIELA)
TTITLE3=NO CLARAO DA LUA
TTITLE4=DA ULTIMA MARCA
TTITLE5=ME DA UM BEIJO
TTITLE6=DO BRASIL A ARGENTINA
TTITLE7=VIVER SEM ELA
TTITLE8=DO SUL DO BRASIL
TTITLE9=SEGURA PEAO
TTITLE10=CORACAO DE PEDRA
TTITLE11=O BARCO VAI
TTITLE12=PALAVRAS DE AMOR
TTITLE13=RITUAL CRIOULO DE UM DOMINGO DE CARREIRA
TTITLE14=VOLTANTE DE OURO
EXTD=
EXTT0=
EXTT1=
EXTT2=
EXTT3=
EXTT4=
EXTT5=
EXTT6=
EXTT7=
EXTT8=
EXTT9=
EXTT10=
EXTT11=
EXTT12=
EXTT13=
EXTT14=
PLAYORDER=
